<?xml version="1.0" encoding="UTF-8"?>
<!DOCTYPE svg PUBLIC "-//W3C//DTD SVG 1.1//EN" "http://www.w3.org/Graphics/SVG/1.1/DTD/svg11.dtd">
<!-- Creator: CorelDRAW -->
<svg xmlns="http://www.w3.org/2000/svg" xml:space="preserve" width="2048px" height="2048px" style="shape-rendering:geometricPrecision; text-rendering:geometricPrecision; image-rendering:optimizeQuality; fill-rule:evenodd; clip-rule:evenodd"
viewBox="0 0 2048 2048"
 xmlns:xlink="http://www.w3.org/1999/xlink">
 <defs>
  <style type="text/css">
   <![CDATA[
    .fil1 {fill:none}
    .fil0 {fill:#beb6e9}
    .fil3 {fill:#2f394a}
    .fil4 {fill:#FFFFFE}
    .fil2 {fill:#2f2370;fill-rule:nonzero}
   ]]>
  </style>
 </defs>
 <g id="Layer_x0020_1">
  <metadata id="CorelCorpID_0Corel-Layer"/>
  <rect class="fil0" x="253.11" y="1024" width="1538.89" height="63.9851"/>
  <rect class="fil1" width="2048" height="2048"/>
  <rect class="fil1" x="255.999" y="255.999" width="1536" height="1536"/>
  <path class="fil2" d="M1792 991.999l0 64.0016 -1536 0 0 -64.0016 20.1921 0 587.314 -510.708 0 -102.67c0,-14.7 10.8898,-26.726 24.2032,-26.726l272.088 0c13.3134,0 24.2032,12.0307 24.2032,26.726l0 102.24 587.809 511.138 20.191 0zm-1418.57 0l1301.14 0 -551.99 -479.991 -197.164 0 -551.989 479.991z"/>
  <polygon class="fil3" points="1789.11,1087.99 1780.47,1126.86 1631.11,1798.88 1625.53,1824 1599.99,1824 447.996,1824 422.455,1824 416.87,1798.88 267.528,1126.86 258.89,1087.99 298.654,1087.99 1749.35,1087.99 "/>
  <polygon class="fil0" points="1448.08,1256.07 1448.08,1672.07 1384.08,1672.07 1384.08,1256.07 "/>
  <polygon class="fil0" points="1192.08,1256.07 1192.08,1672.07 1128.07,1672.07 1128.07,1256.07 "/>
  <polygon class="fil0" points="680.072,1256.07 680.072,1672.07 616.071,1672.07 616.071,1256.07 "/>
  <polygon class="fil0" points="936.074,1256.07 936.074,1672.07 872.072,1672.07 872.072,1256.07 "/>
  <polygon class="fil4" points="1440,1248 1440,1664 1376,1664 1376,1248 "/>
  <polygon class="fil4" points="1184,1248 1184,1664 1120,1664 1120,1248 "/>
  <polygon class="fil4" points="671.998,1248 671.998,1664 607.997,1664 607.997,1248 "/>
  <polygon class="fil4" points="928,1248 928,1664 863.998,1664 863.998,1248 "/>
 </g>
</svg>
